<?xml version="1.0" encoding="utf-8"?>
<!-- Generator: Adobe Illustrator 20.1.0, SVG Export Plug-In . SVG Version: 6.00 Build 0)  -->
<svg version="1.1" id="Layer_1" xmlns="http://www.w3.org/2000/svg" xmlns:xlink="http://www.w3.org/1999/xlink" x="0px" y="0px"
	 viewBox="0 0 841.9 595.3" style="enable-background:new 0 0 841.9 595.3;" xml:space="preserve">
<style type="text/css">
	.st0{fill:#E4232D;}
	.st1{fill:#E4232D;stroke:#FFFFFF;stroke-width:2;stroke-miterlimit:10;}
	.st2{fill:none;stroke:#FFFFFF;stroke-width:2;stroke-miterlimit:10;}
	.st3{fill:none;stroke:#FFFFFF;stroke-width:2.009;stroke-miterlimit:10;}
	.st4{fill:#FFFFFF;stroke:#FFFFFF;stroke-width:2;stroke-miterlimit:10;}
</style>
<g>
	<path d="M280.9,466.9h6.8v68.2h-6.8V466.9z"/>
	<path d="M303.1,466.9h13.6c7.6,0,12.7,0.3,15.4,0.9c4.1,0.9,7.3,2.9,9.9,6c2.5,3,3.8,6.8,3.8,11.3c0,3.7-0.9,7-2.6,9.8
		c-1.7,2.8-4.2,4.9-7.5,6.4c-3.2,1.4-7.7,2.2-13.4,2.2l24.5,31.7h-8.4l-24.5-31.7h-3.9v31.7h-6.8V466.9z M309.9,473.5v23.2l11.8,0.1
		c4.6,0,7.9-0.4,10.1-1.3c2.2-0.9,3.9-2.2,5.1-4.2c1.2-1.9,1.8-4,1.8-6.4c0-2.3-0.6-4.4-1.9-6.2c-1.2-1.9-2.9-3.2-4.9-4
		c-2-0.8-5.4-1.2-10-1.2H309.9z"/>
	<path d="M389.4,465.1c10.3,0,19,3.4,25.9,10.3c7,6.9,10.4,15.4,10.4,25.5c0,10-3.5,18.5-10.4,25.4c-6.9,7-15.4,10.4-25.4,10.4
		c-10.1,0-18.7-3.5-25.6-10.4c-7-6.9-10.4-15.3-10.4-25.1c0-6.6,1.6-12.6,4.8-18.2c3.2-5.6,7.5-10,13-13.1
		C377.1,466.7,383,465.1,389.4,465.1z M389.7,471.8c-5,0-9.8,1.3-14.4,3.9c-4.5,2.6-8.1,6.2-10.6,10.6c-2.5,4.5-3.8,9.4-3.8,14.9
		c0,8.1,2.8,15,8.4,20.5c5.6,5.6,12.4,8.4,20.3,8.4c5.3,0,10.2-1.3,14.7-3.9c4.5-2.6,8-6.1,10.5-10.5c2.5-4.5,3.8-9.4,3.8-14.9
		c0-5.4-1.3-10.3-3.8-14.7c-2.5-4.4-6.1-7.9-10.7-10.5C399.7,473.1,394.8,471.8,389.7,471.8z"/>
	<path d="M438,466.9h6.8v28.6h34.7v-28.6h6.8v68.2h-6.8v-32.9h-34.7v32.9H438V466.9z"/>
	<path d="M528.9,466.9l31.8,68.2h-7.4l-10.7-22.4h-29.4l-10.6,22.4H495l32.2-68.2H528.9z M528,481.4L516.3,506h23.3L528,481.4z"/>
</g>
<g>
	<path class="st0" d="M1390.4,195.2l-34.7-7.5l23.4-27.3c-20.4-20.2-64.2-25.5-109.2-10.9c-6.6,2.1-12.8,4.6-18.8,7.3
		c0.7-6.5,1.1-13.1,1.1-20c0-47.3-18.6-87.3-44.1-100.5l-18.7,30.7l-17.9-30.7c-25.5,13.2-44,53.2-44,100.4c0,6.8,0.4,13.5,1.1,20
		c-6-2.7-12.3-5.2-18.8-7.3c-45-14.6-88.8-9.3-109.2,10.9l23.4,27.3l-34.7,7.5c4.7,28.3,37,58.3,81.9,72.9
		c6.5,2.1,12.9,3.8,19.2,5.1c-4.4,4.8-8.6,9.9-12.5,15.4c-27.8,38.3-36.3,81.6-23.4,107.2l33.2-13.8l-3.5,35.3
		c28.4,4.3,66.9-17.1,94.7-55.4c4.1-5.6,7.8-11.4,11-17.2c3.2,5.8,6.9,11.5,11,17.2c27.8,38.2,66.3,59.7,94.7,55.4L1292,382
		l33.2,13.8c12.9-25.7,4.5-68.9-23.4-107.2c-4-5.5-8.2-10.6-12.5-15.4c6.3-1.3,12.8-3,19.2-5.1
		C1353.4,253.5,1385.7,223.5,1390.4,195.2z"/>
	<g>
		<line class="st1" x1="1090.4" y1="273.2" x2="1251.1" y2="156.7"/>
		<line class="st1" x1="1090.4" y1="273.2" x2="1289.2" y2="273.2"/>
		<line class="st1" x1="1189.8" y1="344.7" x2="1128.6" y2="156.7"/>
		<line class="st1" x1="1289.2" y1="273.2" x2="1128.6" y2="156.7"/>
		<line class="st1" x1="1251.1" y1="156.7" x2="1189.8" y2="344.7"/>
		<line class="st1" x1="1189.4" y1="67" x2="1189.8" y2="344.7"/>
		<line class="st1" x1="1355.7" y1="187.6" x2="1090.4" y2="273.2"/>
		<line class="st1" x1="1024" y1="187.6" x2="1289.2" y2="273.2"/>
		<line class="st1" x1="1292" y1="381.9" x2="1128.6" y2="156.7"/>
		<line class="st1" x1="1087.7" y1="381.9" x2="1251.1" y2="156.7"/>
		<line class="st1" x1="1128.6" y1="156.7" x2="1189.4" y2="67"/>
		<line class="st1" x1="1189.4" y1="67" x2="1251.1" y2="156.7"/>
		<line class="st1" x1="1251.1" y1="156.7" x2="1355.7" y2="187.6"/>
		<line class="st1" x1="1355.7" y1="187.6" x2="1289.2" y2="273.2"/>
		<line class="st1" x1="1289.2" y1="273.2" x2="1292" y2="381.9"/>
		<line class="st1" x1="1292" y1="381.9" x2="1189.8" y2="344.7"/>
		<line class="st1" x1="1189.8" y1="344.7" x2="1087.7" y2="381.9"/>
		<line class="st1" x1="1087.7" y1="381.9" x2="1090.4" y2="273.2"/>
		<line class="st1" x1="1090.4" y1="273.2" x2="1024" y2="187.6"/>
		<line class="st1" x1="1024" y1="187.6" x2="1128.6" y2="156.7"/>
		<line class="st1" x1="1128.6" y1="156.7" x2="1090.4" y2="273.2"/>
		<line class="st1" x1="1090.4" y1="273.2" x2="1189.8" y2="344.7"/>
		<line class="st1" x1="1189.8" y1="344.7" x2="1289.2" y2="273.2"/>
		<line class="st1" x1="1289.2" y1="273.2" x2="1251.1" y2="156.7"/>
		<line class="st1" x1="1251.1" y1="156.7" x2="1128.6" y2="156.7"/>
		<line class="st1" x1="1270.4" y1="215.5" x2="1238.4" y2="309.7"/>
		<line class="st1" x1="1238.4" y1="309.7" x2="1140.1" y2="308.9"/>
		<line class="st1" x1="1140.1" y1="308.9" x2="1109.3" y2="215.5"/>
		<line class="st1" x1="1109.3" y1="215.5" x2="1189.4" y2="156.7"/>
		<line class="st1" x1="1189.4" y1="156.7" x2="1270.4" y2="215.5"/>
	</g>
</g>
<path class="st0" d="M621.5,205.2l-34.7-7.5l23.4-27.3c-20.4-20.2-64.2-25.5-109.2-10.9c-6.6,2.1-12.8,4.6-18.8,7.3
	c0.7-6.5,1.1-13.1,1.1-20c0-47.3-18.6-87.3-44.1-100.5l-18.7,30.7l-17.9-30.7c-25.5,13.2-44,53.2-44,100.4c0,6.8,0.4,13.5,1.1,20
	c-6-2.7-12.3-5.2-18.8-7.3c-45-14.6-88.8-9.3-109.2,10.9l23.4,27.3l-34.7,7.5c4.7,28.3,37,58.3,81.9,72.9c6.5,2.1,12.9,3.8,19.2,5.1
	c-4.4,4.8-8.6,9.9-12.5,15.4c-27.8,38.3-36.3,81.6-23.4,107.2l33.2-13.8l-3.5,35.3c28.4,4.3,66.9-17.1,94.7-55.4
	c4.1-5.6,7.8-11.4,11-17.2c3.2,5.8,6.9,11.5,11,17.2c27.8,38.2,66.3,59.7,94.7,55.4l-3.5-35.3l33.2,13.8
	c12.9-25.7,4.5-68.9-23.4-107.2c-4-5.5-8.2-10.6-12.5-15.4c6.3-1.3,12.8-3,19.2-5.1C584.5,263.5,616.8,233.5,621.5,205.2z"/>
<g>
	<line class="st1" x1="321.8" y1="283" x2="482.1" y2="166.8"/>
	<line class="st1" x1="321.8" y1="283" x2="520.1" y2="283"/>
	<line class="st1" x1="420.9" y1="354.4" x2="359.8" y2="166.8"/>
	<line class="st1" x1="520.1" y1="283" x2="359.8" y2="166.8"/>
	<line class="st1" x1="482.1" y1="166.8" x2="420.9" y2="354.4"/>
	<line class="st1" x1="586.4" y1="197.6" x2="321.8" y2="283"/>
	<line class="st1" x1="255.5" y1="197.6" x2="520.1" y2="283"/>
	<line class="st1" x1="522.8" y1="391.5" x2="359.8" y2="166.8"/>
	<line class="st1" x1="319" y1="391.5" x2="482.1" y2="166.8"/>
	<line class="st1" x1="482.1" y1="166.8" x2="586.4" y2="197.6"/>
	<line class="st1" x1="586.4" y1="197.6" x2="520.1" y2="283"/>
	<line class="st1" x1="520.1" y1="283" x2="522.8" y2="391.5"/>
	<line class="st1" x1="522.8" y1="391.5" x2="420.9" y2="354.4"/>
	<line class="st1" x1="420.9" y1="354.4" x2="319" y2="391.5"/>
	<line class="st1" x1="319" y1="391.5" x2="321.8" y2="283"/>
	<line class="st1" x1="321.8" y1="283" x2="255.5" y2="197.6"/>
	<line class="st1" x1="255.5" y1="197.6" x2="359.8" y2="166.8"/>
	<line class="st1" x1="359.8" y1="166.8" x2="321.8" y2="283"/>
	<line class="st1" x1="321.8" y1="283" x2="420.9" y2="354.4"/>
	<line class="st1" x1="420.9" y1="354.4" x2="520.1" y2="283"/>
	<line class="st1" x1="520.1" y1="283" x2="482.1" y2="166.8"/>
	<line class="st1" x1="501.3" y1="225.5" x2="469.4" y2="319.5"/>
	<line class="st1" x1="469.4" y1="319.5" x2="371.3" y2="318.7"/>
	<line class="st1" x1="371.3" y1="318.7" x2="340.6" y2="225.5"/>
	<line class="st1" x1="340.6" y1="225.5" x2="420.5" y2="166.8"/>
	<line class="st1" x1="420.5" y1="166.8" x2="501.3" y2="225.5"/>
	<line class="st1" x1="420.5" y1="77.4" x2="420.9" y2="354.4"/>
	<line class="st1" x1="482.1" y1="166.8" x2="359.8" y2="166.8"/>
	<line class="st2" x1="359.8" y1="166.9" x2="420.5" y2="77.4"/>
	<line class="st2" x1="482.1" y1="166.9" x2="420.5" y2="77.4"/>
</g>
<polygon class="st1" points="501.2,225.3 420.5,166.7 339.8,225.3 370.6,320.2 470.4,320.2 "/>
<polygon class="st1" points="520.1,283 420.9,354.8 321.8,283 359.7,166.8 482.2,166.8 "/>
<g>
	<line class="st3" x1="420.4" y1="293.7" x2="479.2" y2="288.5"/>
	<line class="st3" x1="361.5" y1="288.5" x2="420.4" y2="293.7"/>
	<g>
		<polygon class="st2" points="479.2,288.5 420.4,322.5 361.5,288.5 361.5,220.5 420.4,186.6 479.2,220.5 		"/>
		<line class="st2" x1="479.2" y1="220.4" x2="420.4" y2="215.2"/>
		<line class="st2" x1="361.5" y1="220.5" x2="420.4" y2="215.2"/>
		<line class="st2" x1="479.2" y1="220.5" x2="454.4" y2="274.1"/>
		<line class="st2" x1="420.4" y1="322.5" x2="454.4" y2="274.1"/>
		<line class="st2" x1="361.5" y1="220.5" x2="386.4" y2="274.1"/>
		<line class="st2" x1="420.4" y1="322.5" x2="386.4" y2="274.1"/>
		<polygon class="st2" points="454.4,274.1 420.4,215.2 386.4,274.1 		"/>
		<polygon class="st2" points="386.4,234.4 420.4,293.2 454.4,234.4 		"/>
		<line class="st2" x1="361.5" y1="220.5" x2="386.4" y2="234.4"/>
		<line class="st2" x1="454.4" y1="234.4" x2="479.2" y2="220.5"/>
		<line class="st2" x1="420.4" y1="293.2" x2="420.4" y2="322.5"/>
		<circle class="st4" cx="420.4" cy="322.5" r="4.1"/>
		<circle class="st4" cx="361.5" cy="220.5" r="4.1"/>
		<circle class="st4" cx="386.4" cy="274.1" r="4.1"/>
		<circle class="st4" cx="454.4" cy="274.1" r="4.1"/>
		<circle class="st4" cx="420.4" cy="215.2" r="4.1"/>
		<circle class="st4" cx="479.2" cy="220.5" r="4.1"/>
		<line class="st2" x1="479.2" y1="288.5" x2="454.4" y2="234.4"/>
		<line class="st2" x1="420.4" y1="186.6" x2="454.4" y2="234.4"/>
		<line class="st2" x1="361.5" y1="288.5" x2="386.4" y2="234.4"/>
		<line class="st2" x1="420.4" y1="186.6" x2="386.4" y2="234.4"/>
	</g>
</g>
<line class="st2" x1="420.5" y1="166.8" x2="420.5" y2="186.6"/>
<line class="st2" x1="420.4" y1="322.5" x2="371.3" y2="318.7"/>
<line class="st2" x1="469.4" y1="319.5" x2="420.4" y2="322.5"/>
<line class="st2" x1="340.6" y1="225.5" x2="361.5" y2="220.5"/>
<line class="st2" x1="501.3" y1="225.5" x2="479.2" y2="220.5"/>
<line class="st2" x1="361.5" y1="288.5" x2="321.8" y2="283"/>
<line class="st2" x1="479.2" y1="288.5" x2="520.1" y2="283"/>
<line class="st2" x1="359.7" y1="166.8" x2="420.4" y2="186.6"/>
<line class="st2" x1="482.2" y1="166.8" x2="420.4" y2="186.6"/>
</svg>
